<svg width="200" height="67" viewBox="0 0 200 67" fill="none" xmlns="http://www.w3.org/2000/svg">
<g clip-path="url(#clip0_99_856)">
<path d="M184.073 -2.63906e-05H15.9357C15.3229 -2.63906e-05 14.7173 -2.63905e-05 14.1061 0.00332361C13.5944 0.00667361 13.0868 0.0164054 12.5702 0.0245961C11.4479 0.0378316 10.3283 0.136781 9.22098 0.320585C8.11526 0.508391 7.04417 0.862457 6.04395 1.37081C5.04496 1.88346 4.13214 2.5496 3.33863 3.34507C2.54095 4.13829 1.87602 5.05515 1.36942 6.06039C0.861412 7.06363 0.50916 8.1387 0.324826 9.24845C0.13874 10.3568 0.0386054 11.4779 0.0253209 12.6018C0.0098108 13.1154 0.00817288 13.6306 0 14.1442V52.8606C0.00817288 53.3807 0.0098108 53.8846 0.0253209 54.4048C0.0386094 55.5286 0.138744 56.6497 0.324826 57.758C0.508651 58.8684 0.860924 59.9441 1.36942 60.9477C1.87579 61.9497 2.54081 62.8628 3.33863 63.6516C4.12913 64.4506 5.04254 65.1172 6.04395 65.626C7.04417 66.1357 8.11513 66.4919 9.22098 66.6826C10.3284 66.8649 11.448 66.9639 12.5702 66.9787C13.0868 66.9901 13.5944 66.9966 14.1061 66.9966C14.7173 67 15.3229 67 15.9357 67H184.073C184.674 67 185.284 67 185.885 66.9966C186.394 66.9966 186.917 66.9901 187.426 66.9787C188.546 66.9647 189.663 66.8657 190.768 66.6826C191.878 66.4905 192.953 66.1344 193.958 65.626C194.958 65.1169 195.871 64.4504 196.661 63.6516C197.456 62.8597 198.123 61.9473 198.636 60.9477C199.14 59.9434 199.489 58.8678 199.67 57.758C199.857 56.6495 199.96 55.5287 199.98 54.4048C199.987 53.8846 199.987 53.3807 199.987 52.8606C200 52.2521 200 51.6469 200 51.0285V15.973C200 15.3596 200 14.7511 199.987 14.1442C199.987 13.6306 199.987 13.1154 199.98 12.6017C199.96 11.4778 199.857 10.3569 199.67 9.24839C199.489 8.13927 199.14 7.06429 198.636 6.06032C197.604 4.04543 195.968 2.40532 193.958 1.37066C192.953 0.863549 191.878 0.509576 190.768 0.320435C189.664 0.135821 188.546 0.0368366 187.426 0.0243616C186.917 0.0161876 186.394 0.00637211 185.885 0.00310586C185.284 -0.000244141 184.674 -0.000244141 184.073 -0.000244141V-2.63906e-05Z" fill="#A6A6A6"/>
<path d="M14.1141 65.5343C13.6049 65.5343 13.108 65.5278 12.6027 65.5164C11.5561 65.5027 10.5119 65.4114 9.47875 65.2432C8.51537 65.0769 7.58212 64.7676 6.70977 64.3255C5.84542 63.887 5.05706 63.3121 4.3749 62.6227C3.68286 61.9414 3.10671 61.1513 2.66927 60.2835C2.22702 59.4102 1.92095 58.474 1.76173 57.5077C1.58979 56.4694 1.49676 55.4195 1.48345 54.3671C1.47286 54.0138 1.45898 52.8377 1.45898 52.8377V14.1442C1.45898 14.1442 1.47376 12.9861 1.48354 12.6459C1.49628 11.5951 1.58877 10.5468 1.76019 9.51015C1.91971 8.54119 2.22601 7.60235 2.6685 6.72613C3.10433 5.85901 3.67729 5.06827 4.36515 4.38457C5.05225 3.69437 5.84313 3.11646 6.70895 2.67193C7.57929 2.23121 8.51078 1.92408 9.47222 1.76083C10.5088 1.59093 11.5566 1.49907 12.6068 1.48603L14.1149 1.46558H185.877L187.403 1.48685C188.443 1.49924 189.482 1.59028 190.509 1.75919C191.48 1.92448 192.421 2.23376 193.301 2.67684C195.036 3.5727 196.447 4.99005 197.338 6.73022C197.773 7.60039 198.075 8.53157 198.232 9.49216C198.406 10.5374 198.503 11.5939 198.523 12.6532C198.528 13.1276 198.528 13.6371 198.528 14.1442C198.541 14.7723 198.541 15.3702 198.541 15.973V51.0285C198.541 51.637 198.541 52.2308 198.528 52.8295C198.528 53.3742 198.528 53.8731 198.521 54.3867C198.502 55.4272 198.406 56.4648 198.235 57.4913C198.079 58.4646 197.775 59.408 197.333 60.2886C196.892 61.1469 196.32 61.9302 195.635 62.6096C194.953 63.3027 194.163 63.881 193.297 64.3223C192.419 64.7678 191.479 65.0783 190.509 65.2432C189.476 65.4123 188.431 65.5036 187.385 65.5164C186.895 65.5278 186.383 65.5343 185.885 65.5343L184.073 65.5377L14.1141 65.5343Z" fill="black"/>
<path d="M41.3974 34.0036C41.4154 32.6056 41.786 31.2348 42.4746 30.0188C43.1632 28.8029 44.1476 27.7812 45.3361 27.0489C44.5811 25.9683 43.585 25.079 42.4271 24.4516C41.2691 23.8242 39.9811 23.4761 38.6655 23.4348C35.8589 23.1396 33.138 25.1179 31.7078 25.1179C30.2499 25.1179 28.0479 23.4641 25.6768 23.513C24.143 23.5627 22.6482 24.0097 21.3381 24.8104C20.028 25.6112 18.9472 26.7384 18.201 28.0822C14.9686 33.6908 17.3797 41.9336 20.476 46.4671C22.0252 48.6871 23.8357 51.1669 26.2048 51.0789C28.523 50.9826 29.3888 49.5974 32.1872 49.5974C34.9595 49.5974 35.7719 51.0789 38.189 51.023C40.6766 50.9825 42.2439 48.7932 43.7387 46.5522C44.8518 44.9704 45.7083 43.2222 46.2765 41.3722C44.8313 40.7597 43.598 39.7343 42.7303 38.4239C41.8627 37.1136 41.3991 35.5762 41.3974 34.0036V34.0036Z" fill="white"/>
<path d="M36.8324 20.4532C38.1887 18.8214 38.8569 16.724 38.6951 14.6064C36.6229 14.8246 34.7088 15.8171 33.3341 17.3863C32.662 18.1529 32.1473 19.0447 31.8193 20.0108C31.4913 20.9769 31.3565 21.9983 31.4226 23.0166C32.4591 23.0273 33.4845 22.8022 34.4215 22.3582C35.3586 21.9141 36.1829 21.2628 36.8324 20.4532Z" fill="white"/>
<path d="M70.7009 45.4591H62.7898L60.8899 51.0812H57.5391L65.0324 30.281H68.5138L76.0071 51.0812H72.5991L70.7009 45.4591ZM63.6091 42.8648H69.88L66.7887 33.7406H66.7021L63.6091 42.8648Z" fill="white"/>
<path d="M92.1894 43.4994C92.1894 48.212 89.6725 51.2397 85.8745 51.2397C84.9124 51.2902 83.9555 51.0681 83.1135 50.5988C82.2715 50.1296 81.5784 49.4322 81.1134 48.5865H81.0416V56.0979H77.9355V35.9161H80.9421V38.4384H80.9992C81.4855 37.5968 82.1903 36.903 83.0388 36.4309C83.8872 35.9588 84.8474 35.7261 85.8174 35.7574C89.6578 35.7575 92.1894 38.7999 92.1894 43.4994ZM88.9968 43.4994C88.9968 40.4291 87.4136 38.4106 84.998 38.4106C82.6248 38.4106 81.0286 40.4717 81.0286 43.4994C81.0286 46.555 82.6248 48.6013 84.998 48.6013C87.4136 48.6013 88.9968 46.5975 88.9968 43.4994Z" fill="white"/>
<path d="M108.846 43.4994C108.846 48.212 106.329 51.2397 102.531 51.2397C101.569 51.2902 100.612 51.0681 99.7698 50.5988C98.9278 50.1296 98.2346 49.4322 97.7697 48.5865H97.6978V56.0979H94.5918V35.9161H97.5982V38.4384H97.6554C98.1417 37.5968 98.8465 36.903 99.6949 36.4309C100.543 35.9588 101.504 35.7261 102.474 35.7574C106.314 35.7574 108.846 38.7999 108.846 43.4994ZM105.653 43.4994C105.653 40.4291 104.07 38.4106 101.654 38.4106C99.2811 38.4106 97.6848 40.4716 97.6848 43.4994C97.6848 46.555 99.2811 48.6013 101.654 48.6013C104.07 48.6013 105.653 46.5975 105.653 43.4994H105.653Z" fill="white"/>
<path d="M119.851 45.2856C120.082 47.3483 122.081 48.7026 124.813 48.7026C127.431 48.7026 129.315 47.3482 129.315 45.4884C129.315 43.8739 128.179 42.9072 125.489 42.2447L122.799 41.5953C118.988 40.6727 117.219 38.8865 117.219 35.988C117.219 32.3991 120.339 29.9341 124.771 29.9341C129.156 29.9341 132.163 32.3991 132.264 35.988H129.129C128.941 33.9122 127.229 32.6592 124.727 32.6592C122.225 32.6592 120.512 33.9269 120.512 35.7721C120.512 37.2426 121.606 38.1079 124.281 38.7703L126.568 39.333C130.826 40.3423 132.595 42.0566 132.595 45.099C132.595 48.9904 129.502 51.4277 124.583 51.4277C119.98 51.4277 116.873 49.0477 116.672 45.2855L119.851 45.2856Z" fill="white"/>
<path d="M139.299 32.3271V35.916H142.177V38.381H139.299V46.7413C139.299 48.0401 139.876 48.6453 141.14 48.6453C141.482 48.6393 141.823 48.6153 142.162 48.5733V51.0236C141.594 51.1301 141.015 51.1784 140.437 51.1676C137.373 51.1676 136.179 50.0144 136.179 47.0733V38.381H133.979V35.916H136.179V32.3271H139.299Z" fill="white"/>
<path d="M143.844 43.4995C143.844 38.7281 146.648 35.7297 151.02 35.7297C155.408 35.7297 158.199 38.728 158.199 43.4995C158.199 48.2841 155.422 51.2693 151.02 51.2693C146.62 51.2693 143.844 48.284 143.844 43.4995ZM155.034 43.4995C155.034 40.2264 153.537 38.2946 151.02 38.2946C148.504 38.2946 147.009 40.2411 147.009 43.4995C147.009 46.7857 148.504 48.7028 151.02 48.7028C153.537 48.7028 155.034 46.7857 155.034 43.4995H155.034Z" fill="white"/>
<path d="M160.76 35.916H163.722V38.4971H163.794C163.994 37.691 164.466 36.9786 165.129 36.4796C165.791 35.9806 166.605 35.7256 167.434 35.7573C167.792 35.756 168.149 35.795 168.498 35.8734V38.785C168.046 38.6467 167.575 38.5831 167.102 38.5969C166.651 38.5786 166.201 38.6583 165.784 38.8307C165.366 39.003 164.991 39.2638 164.683 39.5953C164.376 39.9268 164.144 40.321 164.002 40.7509C163.861 41.1809 163.815 41.6363 163.866 42.086V51.0809H160.76L160.76 35.916Z" fill="white"/>
<path d="M182.818 46.6268C182.4 49.3798 179.725 51.269 176.302 51.269C171.9 51.269 169.168 48.3132 169.168 43.5712C169.168 38.8145 171.915 35.7295 176.172 35.7295C180.358 35.7295 182.991 38.6117 182.991 43.2097V44.2762H172.303V44.4643C172.254 45.0225 172.324 45.5847 172.508 46.1137C172.692 46.6428 172.986 47.1265 173.371 47.5327C173.756 47.939 174.223 48.2585 174.741 48.4701C175.259 48.6817 175.815 48.7804 176.374 48.7598C177.108 48.8287 177.845 48.6584 178.474 48.274C179.104 47.8897 179.593 47.312 179.869 46.6268L182.818 46.6268ZM172.318 42.1007H179.883C179.911 41.5989 179.835 41.0967 179.66 40.6257C179.485 40.1546 179.215 39.7249 178.867 39.3635C178.518 39.0021 178.099 38.7168 177.635 38.5255C177.171 38.3342 176.673 38.241 176.172 38.2518C175.666 38.2488 175.164 38.3462 174.696 38.5384C174.228 38.7306 173.803 39.0137 173.445 39.3716C173.086 39.7294 172.802 40.1548 172.609 40.6232C172.416 41.0917 172.317 41.5938 172.318 42.1007V42.1007Z" fill="white"/>
<path d="M63.2213 14.6244C63.8725 14.5775 64.526 14.6761 65.1345 14.913C65.7431 15.1499 66.2916 15.5192 66.7405 15.9943C67.1894 16.4694 67.5275 17.0384 67.7304 17.6603C67.9333 18.2821 67.9959 18.9414 67.9138 19.5905C67.9138 22.7835 66.1919 24.6188 63.2213 24.6188H59.6191V14.6244H63.2213ZM61.1681 23.2054H63.0483C63.5136 23.2333 63.9793 23.1568 64.4114 22.9816C64.8435 22.8064 65.2312 22.5368 65.5462 22.1924C65.8613 21.8481 66.0957 21.4377 66.2325 20.9912C66.3694 20.5446 66.4051 20.073 66.3371 19.6109C66.4002 19.1505 66.3608 18.6819 66.2219 18.2386C66.083 17.7953 65.8479 17.3882 65.5336 17.0467C65.2193 16.7051 64.8335 16.4374 64.4038 16.2628C63.9741 16.0882 63.5113 16.011 63.0483 16.0368H61.1681V23.2054Z" fill="white"/>
<path d="M69.6633 20.8441C69.616 20.3484 69.6725 19.8483 69.8294 19.3759C69.9862 18.9034 70.2399 18.469 70.574 18.1005C70.9082 17.7321 71.3155 17.4377 71.7699 17.2362C72.2242 17.0347 72.7156 16.9307 73.2124 16.9307C73.7093 16.9307 74.2006 17.0347 74.655 17.2362C75.1093 17.4377 75.5167 17.7321 75.8508 18.1005C76.185 18.469 76.4387 18.9034 76.5955 19.3759C76.7523 19.8483 76.8089 20.3484 76.7616 20.8441C76.8098 21.3403 76.7539 21.8411 76.5975 22.3143C76.4411 22.7875 76.1876 23.2227 75.8533 23.5919C75.5191 23.9611 75.1114 24.2561 74.6566 24.458C74.2018 24.6599 73.7099 24.7642 73.2124 24.7642C72.715 24.7642 72.2231 24.6599 71.7683 24.458C71.3134 24.2561 70.9058 23.9611 70.5716 23.5919C70.2373 23.2227 69.9838 22.7875 69.8274 22.3143C69.671 21.8411 69.6151 21.3403 69.6633 20.8441V20.8441ZM75.2339 20.8441C75.2339 19.2092 74.501 18.2531 73.2149 18.2531C71.9238 18.2531 71.1976 19.2092 71.1976 20.8441C71.1976 22.4921 71.9239 23.4408 73.2149 23.4408C74.501 23.4408 75.2339 22.4856 75.2339 20.8441H75.2339Z" fill="white"/>
<path d="M86.1972 24.6186H84.6565L83.101 19.0636H82.9835L81.4346 24.6186H79.9085L77.834 17.0762H79.3405L80.6887 22.8315H80.7997L82.347 17.0762H83.7718L85.3191 22.8315H85.4367L86.7783 17.0762H88.2636L86.1972 24.6186Z" fill="white"/>
<path d="M90.0078 17.0761H91.4376V18.2743H91.5486C91.7369 17.8439 92.0544 17.4832 92.457 17.2423C92.8596 17.0014 93.3271 16.8924 93.7945 16.9305C94.1607 16.9029 94.5283 16.9583 94.8703 17.0924C95.2123 17.2266 95.5197 17.4361 95.7699 17.7055C96.02 17.975 96.2065 18.2973 96.3155 18.6488C96.4245 19.0002 96.4532 19.3717 96.3994 19.7358V24.6184H94.9141V20.1096C94.9141 18.8975 94.3886 18.2947 93.2901 18.2947C93.0415 18.2831 92.7933 18.3255 92.5626 18.4191C92.3318 18.5126 92.124 18.655 91.9533 18.8365C91.7826 19.0181 91.6531 19.2345 91.5737 19.4709C91.4942 19.7072 91.4668 19.9581 91.4931 20.2061V24.6185H90.0078L90.0078 17.0761Z" fill="white"/>
<path d="M98.7676 14.1318H100.253V24.6186H98.7676V14.1318Z" fill="white"/>
<path d="M102.318 20.8442C102.27 20.3485 102.327 19.8484 102.484 19.3759C102.641 18.9034 102.894 18.469 103.229 18.1006C103.563 17.7321 103.97 17.4377 104.424 17.2362C104.879 17.0347 105.37 16.9307 105.867 16.9307C106.364 16.9307 106.855 17.0347 107.31 17.2362C107.764 17.4377 108.171 17.7321 108.506 18.1006C108.84 18.469 109.094 18.9034 109.25 19.3759C109.407 19.8484 109.464 20.3485 109.417 20.8442C109.465 21.3404 109.409 21.8412 109.252 22.3145C109.096 22.7877 108.842 23.2229 108.508 23.5921C108.174 23.9612 107.766 24.2562 107.311 24.4581C106.856 24.66 106.365 24.7643 105.867 24.7643C105.37 24.7643 104.878 24.66 104.423 24.4581C103.968 24.2562 103.56 23.9612 103.226 23.5921C102.892 23.2229 102.638 22.7877 102.482 22.3145C102.325 21.8412 102.269 21.3404 102.318 20.8442V20.8442ZM107.888 20.8442C107.888 19.2093 107.155 18.2532 105.869 18.2532C104.578 18.2532 103.852 19.2093 103.852 20.8443C103.852 22.4923 104.578 23.441 105.869 23.441C107.155 23.441 107.888 22.4857 107.888 20.8442H107.888Z" fill="white"/>
<path d="M110.98 22.4856C110.98 21.128 111.989 20.3453 113.78 20.234L115.818 20.1163V19.4652C115.818 18.6686 115.293 18.2188 114.277 18.2188C113.448 18.2188 112.874 18.5239 112.709 19.0571H111.271C111.423 17.7616 112.639 16.9307 114.346 16.9307C116.233 16.9307 117.297 17.872 117.297 19.4652V24.6186H115.867V23.5587H115.75C115.511 23.9389 115.176 24.2489 114.779 24.4569C114.382 24.665 113.937 24.7637 113.489 24.7429C113.173 24.7758 112.854 24.7421 112.552 24.6437C112.25 24.5454 111.971 24.3848 111.735 24.1721C111.499 23.9594 111.309 23.6995 111.179 23.409C111.05 23.1185 110.982 22.804 110.98 22.4856V22.4856ZM115.818 21.8411V21.2106L113.98 21.3283C112.944 21.3979 112.474 21.7512 112.474 22.4161C112.474 23.0949 113.061 23.49 113.869 23.49C114.106 23.514 114.345 23.49 114.573 23.4195C114.8 23.349 115.011 23.2334 115.193 23.0796C115.374 22.9257 115.524 22.7368 115.631 22.5241C115.738 22.3113 115.802 22.0791 115.818 21.8411V21.8411Z" fill="white"/>
<path d="M119.248 20.8441C119.248 18.4609 120.471 16.9511 122.372 16.9511C122.842 16.9293 123.309 17.0422 123.718 17.2766C124.127 17.5109 124.46 17.857 124.68 18.2743H124.791V14.1318H126.276V24.6186H124.853V23.4269H124.735C124.499 23.8415 124.153 24.1832 123.737 24.4152C123.32 24.6472 122.848 24.7605 122.372 24.7429C120.457 24.743 119.248 23.2331 119.248 20.8441ZM120.782 20.8441C120.782 22.4439 121.535 23.4065 122.793 23.4065C124.045 23.4065 124.819 22.43 124.819 20.8507C124.819 19.2787 124.037 18.2883 122.793 18.2883C121.543 18.2883 120.782 19.2575 120.782 20.8441H120.782Z" fill="white"/>
<path d="M132.421 20.8441C132.374 20.3484 132.43 19.8483 132.587 19.3759C132.744 18.9034 132.998 18.469 133.332 18.1005C133.666 17.7321 134.073 17.4377 134.528 17.2362C134.982 17.0347 135.473 16.9307 135.97 16.9307C136.467 16.9307 136.958 17.0347 137.413 17.2362C137.867 17.4377 138.274 17.7321 138.609 18.1005C138.943 18.469 139.196 18.9034 139.353 19.3759C139.51 19.8483 139.567 20.3484 139.519 20.8441C139.568 21.3403 139.512 21.8411 139.355 22.3143C139.199 22.7875 138.945 23.2227 138.611 23.5919C138.277 23.9611 137.869 24.2561 137.414 24.458C136.96 24.6599 136.468 24.7642 135.97 24.7642C135.473 24.7642 134.981 24.6599 134.526 24.458C134.071 24.2561 133.664 23.9611 133.329 23.5919C132.995 23.2227 132.742 22.7875 132.585 22.3143C132.429 21.8411 132.373 21.3403 132.421 20.8441V20.8441ZM137.992 20.8441C137.992 19.2092 137.259 18.2531 135.973 18.2531C134.682 18.2531 133.955 19.2092 133.955 20.8441C133.955 22.4921 134.682 23.4408 135.973 23.4408C137.259 23.4408 137.992 22.4856 137.992 20.8441Z" fill="white"/>
<path d="M141.512 17.0761H142.942V18.2743H143.053C143.241 17.8439 143.558 17.4832 143.961 17.2423C144.364 17.0014 144.831 16.8924 145.298 16.9305C145.665 16.9029 146.032 16.9583 146.374 17.0924C146.716 17.2266 147.024 17.4361 147.274 17.7055C147.524 17.975 147.71 18.2973 147.819 18.6488C147.928 19.0002 147.957 19.3717 147.903 19.7358V24.6184H146.418V20.1096C146.418 18.8975 145.892 18.2947 144.794 18.2947C144.545 18.2831 144.297 18.3255 144.066 18.4191C143.836 18.5126 143.628 18.655 143.457 18.8365C143.287 19.0181 143.157 19.2345 143.078 19.4709C142.998 19.7072 142.971 19.9581 142.997 20.2061V24.6185H141.512V17.0761Z" fill="white"/>
<path d="M156.297 15.1982V17.1104H157.927V18.3642H156.297V22.2426C156.297 23.0326 156.622 23.3786 157.361 23.3786C157.55 23.378 157.739 23.3665 157.927 23.3442V24.5841C157.661 24.6319 157.39 24.6574 157.12 24.6602C155.468 24.6602 154.81 24.0779 154.81 22.6237V18.3642H153.615V17.1104H154.81V15.1982H156.297Z" fill="white"/>
<path d="M159.957 14.1318H161.429V18.2883H161.547C161.744 17.8539 162.07 17.4911 162.481 17.2493C162.892 17.0075 163.367 16.8985 163.842 16.9371C164.206 16.9173 164.57 16.9782 164.908 17.1156C165.246 17.2531 165.55 17.4636 165.797 17.7321C166.045 18.0007 166.23 18.3207 166.34 18.6693C166.45 19.018 166.482 19.3866 166.433 19.749V24.6186H164.947V20.1162C164.947 18.9115 164.387 18.3013 163.337 18.3013C163.082 18.2803 162.825 18.3155 162.585 18.4044C162.345 18.4932 162.127 18.6337 161.946 18.8158C161.766 18.9979 161.627 19.2174 161.54 19.4588C161.453 19.7003 161.42 19.9578 161.442 20.2135V24.6186H159.957L159.957 14.1318Z" fill="white"/>
<path d="M175.094 22.582C174.892 23.2714 174.455 23.8676 173.859 24.2665C173.263 24.6654 172.545 24.8416 171.833 24.7641C171.337 24.7772 170.844 24.682 170.389 24.4852C169.933 24.2883 169.526 23.9945 169.195 23.6241C168.865 23.2537 168.618 22.8156 168.473 22.3402C168.328 21.8648 168.289 21.3635 168.356 20.8711C168.29 20.3771 168.331 19.8747 168.475 19.3979C168.62 18.9211 168.865 18.4809 169.194 18.1073C169.523 17.7336 169.928 17.4352 170.383 17.2322C170.837 17.0292 171.329 16.9263 171.826 16.9305C173.92 16.9305 175.184 18.3643 175.184 20.7328V21.2522H169.869V21.3356C169.846 21.6124 169.881 21.891 169.971 22.1536C170.062 22.4161 170.206 22.6568 170.395 22.8603C170.583 23.0637 170.812 23.2254 171.067 23.3349C171.322 23.4445 171.596 23.4994 171.874 23.4964C172.229 23.5391 172.589 23.475 172.908 23.3122C173.227 23.1493 173.49 22.8952 173.664 22.582L175.094 22.582ZM169.869 20.1513H173.671C173.689 19.8982 173.655 19.6439 173.57 19.4049C173.485 19.1658 173.351 18.9473 173.176 18.7632C173.002 18.5792 172.791 18.4338 172.557 18.3364C172.323 18.2389 172.071 18.1916 171.818 18.1974C171.561 18.1942 171.306 18.2425 171.068 18.3396C170.83 18.4366 170.614 18.5805 170.433 18.7626C170.251 18.9447 170.108 19.1613 170.011 19.3999C169.914 19.6384 169.866 19.8939 169.869 20.1513H169.869Z" fill="white"/>
</g>
<defs>
<clipPath id="clip0_99_856">
<rect width="200" height="67" fill="white"/>
</clipPath>
</defs>
</svg>
