<svg width="184" height="42" viewBox="0 0 184 42" fill="none" xmlns="http://www.w3.org/2000/svg">
<g clip-path="url(#clip0_59_2438)">
<path d="M18.2779 29.9202C31.2122 31.8396 43.2605 33.5456 55.3089 35.465C56.1948 35.6783 56.9035 36.9579 58.8526 38.8772C53.1827 39.7303 48.7532 40.7966 44.3236 41.0099C32.6296 41.4364 21.1128 41.4364 9.41877 41.4364C8.00132 41.4364 6.58387 41.6497 5.16641 41.2232C0.559683 40.1568 -1.03497 36.5314 1.44558 31.6263C2.68586 29.2804 4.10331 27.1477 5.69795 25.2284C11.7221 17.9774 17.9235 10.9397 24.1249 3.90198C25.188 2.6224 26.7826 1.98259 28.9088 0.489746C29.2632 11.3662 20.2269 14.3519 18.2779 22.8825C19.8725 22.4559 21.29 22.2427 22.5302 21.8161C70.3694 6.03461 118.031 7.74073 165.516 23.0957C170.477 24.5886 175.261 26.9345 180.045 29.0671C182.526 30.1334 184.652 32.4794 183.234 36.1048C181.994 39.7303 179.514 39.7303 176.679 38.2375C144.963 21.1764 111.298 19.257 77.2795 19.8968C59.5613 20.11 42.1974 22.4559 25.0108 27.361C22.8846 28.0008 20.7584 28.8539 18.2779 29.9202Z" fill="#F93209"/>
</g>
<defs>
<clipPath id="clip0_59_2438">
<rect width="183.408" height="41" fill="white" transform="translate(0.28125 0.489746)"/>
</clipPath>
</defs>
</svg>
