<svg width="49" height="20" viewBox="0 0 49 20" fill="none" xmlns="http://www.w3.org/2000/svg">
<path fill-rule="evenodd" clip-rule="evenodd" d="M15.2497 0.829765C15.6319 1.56476 15.3459 2.47042 14.6109 2.85262C11.8901 4.26746 9.14831 5.37717 6.25591 6.19853C9.59547 7.85557 13.0008 9.48207 16.4477 10.3763C18.247 10.8431 20.0219 11.0998 21.7662 11.0503C21.7803 10.3825 21.8515 9.7467 21.9324 9.19825C22.2007 7.38018 23.1311 5.85445 24.4299 4.70177C25.3193 3.91243 26.8118 3.13306 28.297 2.88877C29.0528 2.76445 29.9259 2.75889 30.7555 3.07171C31.6336 3.40285 32.3595 4.05502 32.7841 5.03003C33.3418 6.31055 33.3264 7.57445 32.8466 8.69684C32.387 9.77215 31.5527 10.6032 30.6549 11.2092C28.9269 12.3756 27.1668 13.1343 25.3984 13.5727C26.4245 14.6743 27.9607 15.3463 29.821 15.7462C31.6807 16.146 33.6757 16.2373 35.494 16.3183C39.316 16.4886 43.1386 16.1334 47.0308 15.6469C47.8528 15.5441 48.6025 16.1272 48.7053 16.9493C48.808 17.7713 48.2249 18.521 47.4029 18.6237C43.4666 19.1158 39.4417 19.4972 35.3605 19.3154L35.2968 19.3125C33.5298 19.2338 31.3109 19.1351 29.1905 18.6792C27.049 18.2189 24.8181 17.3576 23.1931 15.6065C22.7487 15.1277 22.4375 14.5883 22.2217 14.0341C20.0212 14.1415 17.8301 13.8342 15.6943 13.2802C12.512 12.4546 9.36403 11.0545 6.42116 9.62478C7.04441 10.8193 7.59947 12.0787 8.00554 13.436C8.24298 14.2297 7.79206 15.0656 6.99839 15.303C6.20472 15.5405 5.36884 15.0896 5.1314 14.2959C4.41327 11.8954 3.1628 9.86866 1.7507 7.57995L1.75065 7.57987L1.75062 7.57982C1.53969 7.23794 1.32515 6.89022 1.10824 6.53453C0.676913 5.82724 0.900622 4.90422 1.60791 4.47289C1.65814 4.44226 1.70947 4.41493 1.76163 4.39084C1.95403 4.21693 2.19409 4.09068 2.46661 4.03507C6.28258 3.2563 9.75905 1.99423 13.2269 0.190969C13.9619 -0.191229 14.8675 0.0947702 15.2497 0.829765ZM28.9765 8.72268C27.6067 9.64726 26.2095 10.2649 24.7884 10.6313C24.8123 10.2983 24.852 9.96355 24.9003 9.63613C25.0525 8.60425 25.5795 7.69256 26.4212 6.94555C26.9058 6.51547 27.8823 5.9973 28.7839 5.849C29.2215 5.77702 29.5213 5.81252 29.6969 5.87876C29.824 5.92668 29.9356 6.00268 30.0336 6.22783C30.272 6.77529 30.2329 7.17899 30.0881 7.51765C29.9232 7.9034 29.5629 8.32685 28.9765 8.72268Z" fill="#F43109"/>
</svg>
