<svg width="105" height="41" viewBox="0 0 105 41" fill="none" xmlns="http://www.w3.org/2000/svg">
<path fill-rule="evenodd" clip-rule="evenodd" d="M29.767 1.60271C30.1492 2.33771 29.8632 3.24337 29.1282 3.62557C21.608 7.53607 14.0302 10.3865 5.82303 12.2581C6.62539 12.6557 7.4319 13.0575 8.24228 13.4612L8.24256 13.4613L8.2426 13.4613C16.4133 17.5313 24.9776 21.7975 33.6582 24.0495C38.4721 25.2984 43.2747 25.9138 48.0133 25.524C47.8943 23.5347 48.0881 21.5422 48.3373 19.8535C48.8687 16.2518 50.7112 13.2005 53.3497 10.8589C55.099 9.3064 58.1368 7.71496 61.1158 7.22497C62.6185 6.97779 64.2257 6.99097 65.6843 7.54103C67.1915 8.1094 68.4416 9.2173 69.1933 10.9435C70.2492 13.368 70.1997 15.6756 69.3291 17.7124C68.4785 19.7021 66.8966 21.3184 65.0699 22.5514C60.6152 25.5583 56.0578 27.3038 51.4708 28.1041C51.7781 29.1117 52.2411 29.988 52.8938 30.6913C55.5791 33.5849 59.4769 35.2196 63.848 36.1593C68.2147 37.098 72.8645 37.3063 76.9331 37.4876C85.7013 37.8782 94.4353 37.062 103.227 35.963C104.049 35.8603 104.799 36.4434 104.902 37.2654C105.004 38.0874 104.421 38.8371 103.599 38.9399C94.7634 40.0444 85.827 40.8868 76.7996 40.4846L76.7132 40.4807C72.7021 40.3021 67.8373 40.0854 63.2176 39.0923C58.569 38.093 53.9789 36.2709 50.6948 32.7319C49.5533 31.5019 48.8637 30.025 48.465 28.4962C43.2606 28.9524 38.0385 28.2852 32.9048 26.9534C23.9066 24.6189 15.0314 20.1984 6.88634 16.1385C9.43859 20.3522 11.8375 24.7001 13.3212 29.6596C13.5586 30.4532 13.1077 31.2891 12.314 31.5266C11.5204 31.764 10.6845 31.3131 10.447 30.5194C8.75384 24.8596 5.79623 20.0697 2.6244 14.9328C2.15062 14.1655 1.67206 13.3904 1.19222 12.6036C0.760897 11.8963 0.984607 10.9733 1.69189 10.542C1.82958 10.458 1.97545 10.3989 2.12428 10.3633C2.33675 10.0798 2.64991 9.86999 3.02435 9.79358C11.7974 8.00316 19.7899 5.10013 27.7442 0.963918C28.4792 0.581721 29.3848 0.867719 29.767 1.60271ZM63.3915 20.0648C59.3446 22.7965 55.2006 24.4003 50.9969 25.1407C50.9199 23.5143 51.0784 21.8281 51.3051 20.2914C51.7206 17.4758 53.1597 15.0387 55.341 13.1027C56.6855 11.9094 59.2073 10.5792 61.6027 10.1852C62.7872 9.99036 63.821 10.0446 64.6258 10.3481C65.382 10.6332 66.0177 11.165 66.4428 12.1413C67.1795 13.8328 67.1062 15.2801 66.5705 16.5332C66.0148 17.8334 64.9068 19.042 63.3915 20.0648Z" fill="#F43109"/>
</svg>
