<svg width="35" height="35" viewBox="0 0 35 35" fill="none" xmlns="http://www.w3.org/2000/svg">
<path fill-rule="evenodd" clip-rule="evenodd" d="M24.8161 12.5194H34.606V28.2387C34.606 29.4653 34.3093 30.5985 33.716 31.6385C33.1226 32.6784 32.323 33.4984 31.3169 34.0984C30.3108 34.6983 29.2144 34.9983 28.0278 34.9983H7.51924C6.33258 35.025 5.23623 34.7317 4.23014 34.1184C3.22406 33.5051 2.41791 32.6784 1.81168 31.6385C1.20545 30.5985 0.902344 29.4653 0.902344 28.2387V12.5594H10.6923C9.04125 15.146 8.6801 17.8391 9.60879 20.639C10.2537 22.5323 11.4017 24.0255 13.0527 25.1188C14.1361 25.8654 15.3034 26.3254 16.5546 26.4987C17.8058 26.6721 19.0375 26.5721 20.25 26.1988C21.4625 25.8254 22.5459 25.1988 23.5004 24.3188C24.4549 23.4389 25.1772 22.3723 25.6674 21.119C26.2091 19.7591 26.4284 18.3725 26.3252 16.9592C26.1962 15.4126 25.6932 13.9327 24.8161 12.5194ZM5.08144 8.63959V1.07995C5.08144 0.786628 5.10724 0.606638 5.15883 0.539974C5.21042 0.47331 5.391 0.386649 5.70056 0.279987L6.04882 0.19999V8.63959H7.44185V0.0399981H8.33185V8.63959H9.72488V0H28.0278C29.1886 0 30.2656 0.299983 31.2588 0.899957C32.252 1.49993 33.0517 2.30655 33.6579 3.31984C34.2642 4.33313 34.5802 5.4264 34.606 6.59969C34.6318 7.26632 34.6447 8.06628 34.6447 8.99957C34.6189 10.9728 34.606 11.7861 34.606 11.4395H24.2356C24.0035 11.4395 23.8229 11.3595 23.6939 11.1995C22.5588 10.1328 21.2819 9.41289 19.8631 9.03957C18.4442 8.66625 17.0254 8.67292 15.6066 9.05957C14.1877 9.44622 12.9108 10.1728 11.7757 11.2395C11.6467 11.3728 11.5178 11.4395 11.3888 11.4395H1.13452L0.941039 11.3995V9.87953C0.915242 10.1995 0.902344 9.58622 0.902344 8.03962C0.902344 7.31965 0.92814 6.70635 0.979734 6.1997C1.10872 4.25312 1.97291 2.63988 3.57232 1.35994L3.7271 1.31994V8.63959H5.08144ZM31.549 7.75963V4.03981C31.549 3.69316 31.4523 3.41984 31.2588 3.21985C31.0653 3.01986 30.8138 2.91986 30.5043 2.91986C29.3176 2.8932 28.1181 2.8932 26.9056 2.91986C26.5703 2.91986 26.3123 3.02652 26.1317 3.23985C25.9511 3.45317 25.8608 3.73315 25.8608 4.07981V7.75963C25.8608 8.10628 25.9576 8.3796 26.1511 8.57959C26.3445 8.77958 26.596 8.87958 26.9056 8.87958H30.4656C30.8009 8.87958 31.0653 8.77958 31.2588 8.57959C31.4523 8.3796 31.549 8.10628 31.549 7.75963ZM17.7735 24.5188C16.5611 24.5188 15.4389 24.2189 14.407 23.6189C13.3751 23.0189 12.5625 22.1923 11.9692 21.139C11.3759 20.0857 11.0792 18.9391 11.0792 17.6992C11.0792 16.4592 11.3759 15.3126 11.9692 14.2593C12.5625 13.206 13.3751 12.3661 14.407 11.7394C15.4389 11.1128 16.5546 10.7995 17.7542 10.7995C18.9537 10.7995 20.063 11.1128 21.082 11.7394C22.1009 12.3661 22.9071 13.206 23.5004 14.2593C24.0938 15.3126 24.3904 16.4592 24.3904 17.6992C24.3904 18.9391 24.0938 20.0857 23.5004 21.139C22.9071 22.1923 22.1009 23.0189 21.082 23.6189C20.063 24.2189 18.9602 24.5188 17.7735 24.5188ZM22.6491 17.6792C22.6491 16.7725 22.4299 15.9259 21.9913 15.1393C21.5528 14.3526 20.9594 13.7327 20.2113 13.2794C19.4632 12.8261 18.6442 12.5994 17.7542 12.5994C16.8642 12.5994 16.0451 12.8261 15.297 13.2794C14.5489 13.7327 13.9556 14.346 13.517 15.1193C13.0785 15.8926 12.8592 16.7392 12.8592 17.6592C12.8592 18.5791 13.0785 19.4257 13.517 20.199C13.9556 20.9723 14.5489 21.5923 15.297 22.059C16.0451 22.5256 16.8642 22.7589 17.7542 22.7589C18.6442 22.7589 19.4632 22.5323 20.2113 22.0789C20.9594 21.6256 21.5528 21.0123 21.9913 20.239C22.4299 19.4657 22.6491 18.6125 22.6491 17.6792Z" fill="#ED4700"/>
</svg>
