<svg width="32" height="32" viewBox="0 0 32 32" fill="none" xmlns="http://www.w3.org/2000/svg">
<path d="M25.3333 13.3334H26.6667C27.0203 13.3334 27.3594 13.4739 27.6095 13.7239C27.8595 13.974 28 14.3131 28 14.6667V28.0001C28 28.3537 27.8595 28.6928 27.6095 28.9429C27.3594 29.1929 27.0203 29.3334 26.6667 29.3334H5.33333C4.97971 29.3334 4.64057 29.1929 4.39052 28.9429C4.14048 28.6928 4 28.3537 4 28.0001V14.6667C4 14.3131 4.14048 13.974 4.39052 13.7239C4.64057 13.4739 4.97971 13.3334 5.33333 13.3334H6.66667V12.0001C6.66667 10.7744 6.90808 9.56074 7.37712 8.42837C7.84617 7.296 8.53366 6.2671 9.40034 5.40042C10.267 4.53374 11.2959 3.84625 12.4283 3.37721C13.5607 2.90816 14.7743 2.66675 16 2.66675C17.2257 2.66675 18.4393 2.90816 19.5717 3.37721C20.7041 3.84625 21.733 4.53374 22.5997 5.40042C23.4663 6.2671 24.1538 7.296 24.6229 8.42837C25.0919 9.56074 25.3333 10.7744 25.3333 12.0001V13.3334ZM6.66667 16.0001V26.6667H25.3333V16.0001H6.66667ZM14.6667 18.6667H17.3333V24.0001H14.6667V18.6667ZM22.6667 13.3334V12.0001C22.6667 10.232 21.9643 8.53628 20.714 7.28604C19.4638 6.03579 17.7681 5.33341 16 5.33341C14.2319 5.33341 12.5362 6.03579 11.286 7.28604C10.0357 8.53628 9.33333 10.232 9.33333 12.0001V13.3334H22.6667Z" fill="black"/>
</svg>
