<svg width="228" height="67" viewBox="0 0 228 67" fill="none" xmlns="http://www.w3.org/2000/svg">
<g clip-path="url(#clip0_99_857)">
<path fill-rule="evenodd" clip-rule="evenodd" d="M218.704 67H8.4149C3.77709 67 0 63.2239 0 58.625V8.375C0 3.75935 3.77709 0 8.4149 0H218.704C223.337 0 227.119 3.75935 227.119 8.375V58.625C227.119 63.2239 223.337 67 218.704 67Z" fill="black"/>
<path fill-rule="evenodd" clip-rule="evenodd" d="M218.704 1.34084C222.594 1.34084 225.777 4.50287 225.777 8.375V58.625C225.777 62.4971 222.615 65.6592 218.704 65.6592H8.4149C4.52499 65.6592 1.3412 62.4971 1.3412 58.625V8.375C1.3412 4.50287 4.5041 1.34084 8.4149 1.34084H218.704ZM218.704 0H8.4149C3.77709 0 0 3.77606 0 8.375V58.625C0 63.2407 3.77709 67 8.4149 67H218.704C223.337 67 227.119 63.2407 227.119 58.625V8.375C227.119 3.77606 223.337 0 218.704 0Z" fill="#A6A6A6"/>
<path d="M119.646 22.1634C118.129 22.1634 116.851 21.6329 115.84 20.5886C114.837 19.5736 114.277 18.1743 114.302 16.7457C114.302 15.2211 114.82 13.9304 115.84 12.907C116.846 11.8628 118.125 11.3323 119.642 11.3323C121.142 11.3323 122.42 11.8628 123.448 12.907C124.467 13.9638 124.986 15.2545 124.986 16.7457C124.969 18.2745 124.451 19.5653 123.448 20.5845C122.441 21.6371 121.162 22.1634 119.646 22.1634ZM74.5173 22.1634C73.0341 22.1634 71.7472 21.6413 70.6943 20.6095C69.6498 19.582 69.1191 18.2829 69.1191 16.7499C69.1191 15.2169 69.6498 13.9179 70.6943 12.8903C71.7263 11.8586 73.0132 11.3365 74.5173 11.3365C75.2527 11.3365 75.9672 11.4826 76.6524 11.7792C77.3251 12.0674 77.8724 12.4601 78.2777 12.9404L78.378 13.0616L77.2457 14.1727L77.1287 14.0348C76.4894 13.2746 75.6329 12.9028 74.5006 12.9028C73.4895 12.9028 72.6079 13.2621 71.8809 13.9722C71.1497 14.6865 70.7779 15.6221 70.7779 16.7541C70.7779 17.8861 71.1497 18.8217 71.8809 19.536C72.6079 20.2461 73.4895 20.6053 74.5006 20.6053C75.5786 20.6053 76.4853 20.2461 77.1914 19.536C77.6092 19.1183 77.8682 18.5335 77.9602 17.7942H74.3293V16.232H79.5186L79.5395 16.374C79.5771 16.6371 79.6147 16.9086 79.6147 17.1593C79.6147 18.6004 79.1802 19.7658 78.3195 20.6262C77.3418 21.6454 76.0633 22.1634 74.5173 22.1634ZM134.52 21.942H132.92L128.019 14.1017L128.061 15.5135V21.9378H126.46V11.5578H128.286L128.336 11.6372L132.945 19.0222L132.903 17.6146V11.5578H134.52V21.942ZM107.621 21.942H106V13.1201H103.188V11.5578H110.429V13.1201H107.617V21.942H107.621ZM101.868 21.942H100.251V11.5578H101.868V21.942ZM92.7802 21.942H91.1632V13.1201H88.3513V11.5578H95.5921V13.1201H92.7802V21.942ZM87.3276 21.9253H81.1272V11.5578H87.3276V13.1201H82.7483V15.9688H86.8806V17.5143H82.7483V20.3631H87.3276V21.9253ZM117.026 19.5151C117.749 20.2378 118.626 20.6012 119.646 20.6012C120.695 20.6012 121.551 20.2461 122.266 19.5151C122.976 18.805 123.335 17.8735 123.335 16.7499C123.335 15.6263 122.976 14.6906 122.27 13.9847C121.547 13.2621 120.665 12.8987 119.65 12.8987C118.601 12.8987 117.745 13.2537 117.034 13.9847C116.324 14.6948 115.965 15.6263 115.965 16.7499C115.965 17.8735 116.32 18.8092 117.026 19.5151Z" fill="white"/>
<path fill-rule="evenodd" clip-rule="evenodd" d="M114.153 36.4406C110.205 36.4406 107.004 39.4356 107.004 43.5667C107.004 47.6602 110.225 50.6928 114.153 50.6928C118.101 50.6928 121.302 47.6769 121.302 43.5667C121.302 39.4356 118.101 36.4406 114.153 36.4406ZM114.153 47.8691C111.993 47.8691 110.134 46.0813 110.134 43.55C110.134 40.9811 111.997 39.2309 114.153 39.2309C116.313 39.2309 118.172 40.9811 118.172 43.55C118.177 46.098 116.313 47.8691 114.153 47.8691ZM98.5557 36.4406C94.6073 36.4406 91.4068 39.4356 91.4068 43.5667C91.4068 47.6602 94.6282 50.6928 98.5557 50.6928C102.504 50.6928 105.705 47.6769 105.705 43.5667C105.705 39.4356 102.5 36.4406 98.5557 36.4406ZM98.5557 47.8691C96.3956 47.8691 94.5363 46.0813 94.5363 43.55C94.5363 40.9811 96.3998 39.2309 98.5557 39.2309C100.716 39.2309 102.575 40.9811 102.575 43.55C102.575 46.098 100.716 47.8691 98.5557 47.8691ZM79.9962 38.6169V41.6327H87.237C87.0155 43.3244 86.4557 44.5734 85.5991 45.4297C84.5379 46.4906 82.9 47.6435 80.0129 47.6435C75.5631 47.6435 72.0826 44.0512 72.0826 39.6027C72.0826 35.1541 75.5631 31.5618 80.0129 31.5618C82.4153 31.5618 84.166 32.51 85.4654 33.7214L87.6047 31.5827C85.7997 29.8534 83.3972 28.5293 80.0296 28.5293C73.9252 28.5293 68.8027 33.5 68.8027 39.586C68.8027 45.6886 73.921 50.6426 80.0296 50.6426C83.3262 50.6426 85.7997 49.565 87.7551 47.5349C89.7481 45.5424 90.379 42.7313 90.379 40.4631C90.379 39.7572 90.3247 39.1223 90.2119 38.5835H79.992C79.9962 38.5793 79.9962 38.6169 79.9962 38.6169ZM155.91 40.9644C155.312 39.3646 153.508 36.4239 149.806 36.4239C146.137 36.4239 143.087 39.3103 143.087 43.55C143.087 47.5516 146.104 50.6761 150.161 50.6761C153.42 50.6761 155.317 48.6836 156.098 47.514L153.679 45.8933C152.877 47.0838 151.761 47.8649 150.177 47.8649C148.577 47.8649 147.457 47.1381 146.714 45.7054L156.244 41.758C156.244 41.7622 155.91 40.9644 155.91 40.9644ZM146.191 43.3453C146.116 40.5926 148.331 39.1933 149.914 39.1933C151.164 39.1933 152.204 39.8074 152.559 40.7012L146.191 43.3453ZM138.449 50.25H141.579V29.3146H138.449V50.25ZM133.31 38.0237H133.197C132.491 37.1842 131.15 36.4239 129.437 36.4239C125.881 36.4239 122.605 39.5525 122.605 43.5709C122.605 47.5725 125.864 50.6635 129.437 50.6635C131.129 50.6635 132.491 49.8991 133.197 49.0428H133.31V50.0662C133.31 52.7855 131.856 54.2516 129.512 54.2516C127.594 54.2516 126.403 52.8732 125.919 51.7203L123.199 52.8565C123.98 54.7362 126.065 57.0628 129.508 57.0628C133.176 57.0628 136.285 54.9032 136.285 49.636V36.85H133.327V38.0237C133.331 38.0237 133.31 38.0237 133.31 38.0237ZM129.717 47.8691C127.557 47.8691 125.752 46.0646 125.752 43.5709C125.752 41.0563 127.557 39.2351 129.717 39.2351C131.856 39.2351 133.515 41.0772 133.515 43.5709C133.536 46.0646 131.86 47.8691 129.717 47.8691ZM170.563 29.3146H163.08V50.25H166.209V42.3219H170.567C174.031 42.3219 177.436 39.8115 177.436 35.8266C177.436 31.8417 174.043 29.3146 170.563 29.3146ZM170.655 39.398H166.205V32.2135H170.655C172.999 32.2135 174.323 34.1474 174.323 35.8057C174.323 37.4473 172.982 39.398 170.655 39.398ZM189.979 36.403C187.706 36.403 185.362 37.4097 184.393 39.6027L187.167 40.7555C187.765 39.6027 188.859 39.21 190.017 39.21C191.638 39.21 193.276 40.1791 193.313 41.9084V42.1298C192.753 41.8123 191.525 41.3278 190.054 41.3278C187.059 41.3278 184.021 42.9652 184.021 46.0353C184.021 48.8465 186.478 50.651 189.214 50.651C191.316 50.651 192.473 49.7028 193.196 48.6042H193.309V50.2249H196.326V42.205C196.326 38.4707 193.551 36.403 189.979 36.403ZM189.586 47.8691C188.563 47.8691 187.13 47.3678 187.13 46.0813C187.13 44.4606 188.918 43.8466 190.443 43.8466C191.822 43.8466 192.473 44.1431 193.292 44.5525C193.067 46.4322 191.479 47.8524 189.586 47.8691ZM207.331 36.85L203.738 45.9309H203.625L199.902 36.85H196.535L202.121 49.5441L198.937 56.5991H202.196L210.791 36.85H207.331ZM179.162 50.25H182.291V29.3146H179.162V50.25Z" fill="white"/>
<path fill-rule="evenodd" clip-rule="evenodd" d="M17.4814 12.6189C16.9967 13.141 16.7168 13.9388 16.7168 14.9831V52.0211C16.7168 53.0653 16.9967 53.8631 17.4981 54.3644L17.6276 54.4772L38.3849 33.7256V33.2619L17.6109 12.5061L17.4814 12.6189Z" fill="url(#paint0_linear_99_857)"/>
<path fill-rule="evenodd" clip-rule="evenodd" d="M45.2925 40.6637L38.3691 33.7423V33.2578L45.2925 26.3364L45.4429 26.4283L53.6322 31.0816C55.9762 32.4015 55.9762 34.5819 53.6322 35.9186L45.4429 40.5718L45.2925 40.6637Z" fill="url(#paint1_linear_99_857)"/>
<path fill-rule="evenodd" clip-rule="evenodd" d="M45.4429 40.5718L38.3692 33.5L17.4824 54.3811C18.247 55.1998 19.5297 55.2917 20.9629 54.4939L45.4429 40.5718Z" fill="url(#paint2_linear_99_857)"/>
<path fill-rule="evenodd" clip-rule="evenodd" d="M45.4429 26.4283L20.9629 12.5271C19.5297 11.7084 18.2429 11.8212 17.4824 12.6399L38.3692 33.5001L45.4429 26.4283Z" fill="url(#paint3_linear_99_857)"/>
<path opacity="0.2" fill-rule="evenodd" clip-rule="evenodd" d="M45.2916 40.4214L20.9785 54.2307C19.6206 55.0118 18.4089 54.9575 17.6276 54.2474L17.498 54.3769L17.6276 54.4897C18.4089 55.1956 19.6206 55.2541 20.9785 54.473L45.4587 40.5718L45.2916 40.4214Z" fill="black"/>
<path opacity="0.12" fill-rule="evenodd" clip-rule="evenodd" d="M53.6321 35.6762L45.2715 40.4214L45.4219 40.5718L53.6112 35.9185C54.7852 35.2502 55.3618 34.373 55.3618 33.5C55.2908 34.302 54.6933 35.0622 53.6321 35.6762Z" fill="black"/>
<path opacity="0.25" fill-rule="evenodd" clip-rule="evenodd" d="M20.9618 12.7693L53.6312 31.3238C54.6925 31.9211 55.2899 32.7022 55.3819 33.5001C55.3819 32.6271 54.8053 31.7499 53.6312 31.0816L20.9618 12.5271C18.6179 11.1862 16.7168 12.3057 16.7168 14.9832V15.2254C16.7168 12.5438 18.6179 11.4452 20.9618 12.7693Z" fill="white"/>
</g>
<defs>
<linearGradient id="paint0_linear_99_857" x1="36.5231" y1="14.5835" x2="3.27464" y2="23.445" gradientUnits="userSpaceOnUse">
<stop stop-color="#00A0FF"/>
<stop offset="0.00657" stop-color="#00A1FF"/>
<stop offset="0.2601" stop-color="#00BEFF"/>
<stop offset="0.5122" stop-color="#00D2FF"/>
<stop offset="0.7604" stop-color="#00DFFF"/>
<stop offset="1" stop-color="#00E3FF"/>
</linearGradient>
<linearGradient id="paint1_linear_99_857" x1="56.689" y1="33.5001" x2="16.1479" y2="33.5001" gradientUnits="userSpaceOnUse">
<stop stop-color="#FFE000"/>
<stop offset="0.4087" stop-color="#FFBD00"/>
<stop offset="0.7754" stop-color="#FFA500"/>
<stop offset="1" stop-color="#FF9C00"/>
</linearGradient>
<linearGradient id="paint2_linear_99_857" x1="41.5965" y1="37.348" x2="14.9147" y2="82.2681" gradientUnits="userSpaceOnUse">
<stop stop-color="#FF3A44"/>
<stop offset="1" stop-color="#C31162"/>
</linearGradient>
<linearGradient id="paint3_linear_99_857" x1="12.2229" y1="0.299575" x2="24.1267" y2="20.3615" gradientUnits="userSpaceOnUse">
<stop stop-color="#32A071"/>
<stop offset="0.0685" stop-color="#2DA771"/>
<stop offset="0.4762" stop-color="#15CF74"/>
<stop offset="0.8009" stop-color="#06E775"/>
<stop offset="1" stop-color="#00F076"/>
</linearGradient>
<clipPath id="clip0_99_857">
<rect width="227.119" height="67" fill="white"/>
</clipPath>
</defs>
</svg>
