<svg width="18" height="18" viewBox="0 0 18 18" fill="none" xmlns="http://www.w3.org/2000/svg">
<path d="M0.324961 7.16577C0.324961 11.1121 3.53297 14.3201 7.47926 14.3201C8.94703 14.3201 10.2918 13.8718 11.4168 13.1072L15.4597 17.1501C15.7058 17.405 16.0486 17.5193 16.3914 17.5193C17.1384 17.5193 17.6746 16.9568 17.6746 16.2273C17.6746 15.8757 17.5515 15.5505 17.3142 15.3044L13.2976 11.2791C14.1326 10.1277 14.6336 8.70386 14.6336 7.16577C14.6336 3.21948 11.4255 0.0114746 7.47926 0.0114746C3.53297 0.0114746 0.324961 3.21948 0.324961 7.16577ZM2.18824 7.16577C2.18824 4.2478 4.5525 1.87476 7.47926 1.87476C10.3972 1.87476 12.7703 4.2478 12.7703 7.16577C12.7703 10.0837 10.3972 12.4568 7.47926 12.4568C4.5525 12.4568 2.18824 10.0837 2.18824 7.16577Z" fill="#3C3C43" fill-opacity="0.6"/>
</svg>
