<svg width="41" height="40" viewBox="0 0 41 40" fill="none" xmlns="http://www.w3.org/2000/svg">
<path d="M30.3765 27.6949L37.5149 34.8316L35.1565 37.1899L28.0199 30.0516C25.3644 32.1803 22.0615 33.3381 18.6582 33.3333C10.3782 33.3333 3.6582 26.6133 3.6582 18.3333C3.6582 10.0533 10.3782 3.33325 18.6582 3.33325C26.9382 3.33325 33.6582 10.0533 33.6582 18.3333C33.663 21.7366 32.5052 25.0395 30.3765 27.6949ZM27.0332 26.4583C29.1484 24.2831 30.3296 21.3673 30.3249 18.3333C30.3249 11.8866 25.1032 6.66659 18.6582 6.66659C12.2115 6.66659 6.99154 11.8866 6.99154 18.3333C6.99154 24.7783 12.2115 29.9999 18.6582 29.9999C21.6923 30.0047 24.608 28.8234 26.7832 26.7083L27.0332 26.4583Z" fill="black"/>
</svg>
