<svg width="34" height="35" viewBox="0 0 34 35" fill="none" xmlns="http://www.w3.org/2000/svg">
<path fill-rule="evenodd" clip-rule="evenodd" d="M17.129 0V0.04C20.1883 0.04 23.029 0.826659 25.6512 2.4C28.1964 3.94667 30.2144 6.03999 31.7055 8.68C33.248 11.4 34.0128 14.3467 34 17.52C33.9871 20.6933 33.2223 23.64 31.7055 26.36C30.2144 29 28.1964 31.0933 25.6512 32.64C23.029 34.2133 20.1883 35 17.129 35C14.0697 35 11.229 34.2133 8.60671 32.64C6.06158 31.0933 4.04351 29 2.55243 26.36C1.03564 23.64 0.270826 20.6933 0.257972 17.52C0.245118 14.3467 1.00993 11.4 2.55243 8.68C4.04351 6.03999 6.06158 3.94667 8.60671 2.4C11.229 0.826659 14.0697 0.0266668 17.129 0ZM22.3349 25.84L25.3427 10.08C25.3427 9.76 25.227 9.57333 24.9957 9.52C24.8157 9.46667 24.5843 9.48 24.3015 9.56L23.9545 9.68L6.83283 16.64C6.67858 16.72 6.54362 16.82 6.42793 16.94C6.31224 17.06 6.26725 17.2 6.29296 17.36C6.31867 17.5733 6.44721 17.76 6.67858 17.92L7.02564 18.12L11.2675 19.6L21.4865 12.88L21.7564 12.76C21.9621 12.68 22.0649 12.72 22.0649 12.88L21.8336 13.24L13.8126 20.76V20.84L16.4348 23L20.7538 26.4C21.088 26.56 21.3965 26.5867 21.6793 26.48C21.8593 26.4267 22.0264 26.3067 22.1806 26.12C22.232 26.0133 22.2835 25.92 22.3349 25.84Z" fill="#ED4700"/>
</svg>
