<svg width="43" height="35" viewBox="0 0 43 35" fill="none" xmlns="http://www.w3.org/2000/svg">
<path fill-rule="evenodd" clip-rule="evenodd" d="M42.9748 4.13502C41.7871 5.94 40.3427 7.48241 38.6414 8.76231V9.89452C38.6414 12.8481 38.1118 15.8017 37.0526 18.7553C35.9291 21.7745 34.3563 24.4655 32.334 26.8284C30.1513 29.3554 27.5834 31.3244 24.6303 32.7356C21.3883 34.2452 17.8735 35 14.0858 35C11.6784 35 9.33519 34.6554 7.05616 33.9662C4.84132 33.3099 2.75492 32.3418 0.796875 31.0619C1.47095 31.1275 2.16107 31.1603 2.86725 31.1603C4.85739 31.1603 6.76726 30.8322 8.5969 30.1758C10.4265 29.5195 12.0957 28.6006 13.6043 27.4191C11.7426 27.3535 10.0735 26.7546 8.5969 25.6224C7.12035 24.4901 6.10924 23.038 5.56356 21.2658C6.07714 21.3643 6.60677 21.4135 7.15245 21.4135C7.92283 21.4135 8.67714 21.3151 9.41542 21.1181C8.13146 20.8556 6.95986 20.3059 5.9006 19.4691C4.84133 18.6322 4.01479 17.5985 3.42096 16.3678C2.82713 15.1371 2.51416 13.8326 2.48207 12.4543V12.3066C3.70183 13.0286 5.01787 13.406 6.43023 13.4388C5.24256 12.6184 4.30368 11.56 3.61355 10.2637C2.92342 8.96741 2.57836 7.56447 2.57836 6.05485C2.57836 4.4796 2.96355 3.00282 3.73392 1.62447C5.91666 4.34835 8.53269 6.51429 11.5821 8.12236C14.6957 9.76325 18.0179 10.6821 21.5488 10.879C21.4204 10.2227 21.3562 9.54993 21.3562 8.86076C21.3562 7.25269 21.7414 5.77591 22.5118 4.43038C23.2821 3.08485 24.3334 2.01008 25.6655 1.20605C26.9976 0.402012 28.434 0 29.9748 0C31.1945 0 32.3501 0.24613 33.4414 0.738397C34.5328 1.23066 35.4797 1.91983 36.2822 2.80591C38.2402 2.41209 40.0698 1.69011 41.7711 0.639944C41.4501 1.69011 40.9606 2.63361 40.3026 3.47046C39.6445 4.30732 38.8661 5.00469 37.9674 5.56259C39.7328 5.33286 41.4019 4.85701 42.9748 4.13502Z" fill="#ED4700"/>
</svg>
