<svg width="49" height="20" viewBox="0 0 49 20" fill="none" xmlns="http://www.w3.org/2000/svg">
<path fill-rule="evenodd" clip-rule="evenodd" d="M15.2517 0.829765C15.6339 1.56476 15.3479 2.47042 14.6129 2.85262C11.892 4.26746 9.15026 5.37717 6.25787 6.19853C9.59743 7.85557 13.0027 9.48207 16.4496 10.3763C18.2489 10.8431 20.0239 11.0998 21.7682 11.0503C21.7823 10.3825 21.8535 9.7467 21.9344 9.19825C22.2026 7.38018 23.133 5.85445 24.4318 4.70177C25.3212 3.91243 26.8138 3.13306 28.299 2.88877C29.0548 2.76445 29.9279 2.75889 30.7574 3.07171C31.6355 3.40285 32.3615 4.05502 32.7861 5.03003C33.3437 6.31055 33.3284 7.57445 32.8486 8.69684C32.3889 9.77215 31.5546 10.6032 30.6568 11.2092C28.9289 12.3756 27.1688 13.1343 25.4004 13.5727C26.4265 14.6743 27.9627 15.3463 29.8229 15.7462C31.6826 16.146 33.6777 16.2373 35.496 16.3183C39.3179 16.4886 43.1405 16.1334 47.0328 15.6469C47.8548 15.5441 48.6045 16.1272 48.7072 16.9493C48.81 17.7713 48.2269 18.521 47.4049 18.6237C43.4686 19.1158 39.4436 19.4972 35.3624 19.3154L35.2988 19.3125C33.5318 19.2338 31.3129 19.1351 29.1925 18.6792C27.0509 18.2189 24.82 17.3576 23.1951 15.6065C22.7506 15.1277 22.4394 14.5883 22.2237 14.0341C20.0232 14.1415 17.832 13.8342 15.6963 13.2802C12.5139 12.4546 9.36598 11.0545 6.42311 9.62478C7.04636 10.8193 7.60142 12.0787 8.0075 13.436C8.24493 14.2297 7.79402 15.0656 7.00035 15.303C6.20667 15.5405 5.37079 15.0896 5.13336 14.2959C4.41523 11.8954 3.16475 9.86866 1.75265 7.57995L1.7526 7.57986C1.54166 7.23797 1.32711 6.89023 1.11019 6.53453C0.678866 5.82724 0.902576 4.90422 1.60986 4.47289C1.6601 4.44226 1.71142 4.41493 1.76358 4.39084C1.95598 4.21693 2.19604 4.09068 2.46856 4.03507C6.28453 3.2563 9.761 1.99423 13.2288 0.190969C13.9638 -0.191229 14.8695 0.0947702 15.2517 0.829765ZM28.9784 8.72268C27.6087 9.64726 26.2114 10.2649 24.7904 10.6313C24.8143 10.2983 24.8539 9.96354 24.9022 9.63613C25.0545 8.60425 25.5815 7.69256 26.4232 6.94555C26.9078 6.51547 27.8842 5.9973 28.7859 5.849C29.2234 5.77702 29.5232 5.81252 29.6989 5.87876C29.826 5.92668 29.9375 6.00268 30.0356 6.22783C30.274 6.77529 30.2348 7.17899 30.09 7.51765C29.9252 7.9034 29.5648 8.32685 28.9784 8.72268Z" fill="#F43109"/>
</svg>
