<svg width="32" height="32" viewBox="0 0 32 32" fill="none" xmlns="http://www.w3.org/2000/svg">
<path d="M9.33333 13.3334H26.6667C27.0203 13.3334 27.3594 13.4738 27.6095 13.7239C27.8595 13.9739 28 14.3131 28 14.6667V28C28 28.3537 27.8595 28.6928 27.6095 28.9428C27.3594 29.1929 27.0203 29.3334 26.6667 29.3334H5.33333C4.97971 29.3334 4.64057 29.1929 4.39052 28.9428C4.14048 28.6928 4 28.3537 4 28V14.6667C4 14.3131 4.14048 13.9739 4.39052 13.7239C4.64057 13.4738 4.97971 13.3334 5.33333 13.3334H6.66667V12C6.66591 9.89698 7.37544 7.8553 8.68025 6.20595C9.98507 4.55661 11.8087 3.39628 13.8555 2.91306C15.9023 2.42983 18.0523 2.65204 19.957 3.54365C21.8617 4.43527 23.4094 5.94403 24.3493 7.82537L21.964 9.01737C21.2927 7.6734 20.1871 6.59557 18.8264 5.95863C17.4658 5.3217 15.9299 5.16301 14.4678 5.50827C13.0057 5.85354 11.7031 6.68254 10.7711 7.86085C9.83918 9.03917 9.33253 10.4977 9.33333 12V13.3334ZM6.66667 16V26.6667H25.3333V16H6.66667ZM13.3333 20H18.6667V22.6667H13.3333V20Z" fill="black"/>
</svg>
